<svg xmlns="http://www.w3.org/2000/svg" viewBox="0 0 226.03 226.03"><defs><style>.cls-1{fill:#ff0;}</style></defs><g id="Layer_2" data-name="Layer 2"><g id="Layer_1-2" data-name="Layer 1"><circle class="cls-1" cx="113.01" cy="113.01" r="113"/><path d="M35.71,95.34a10.6,10.6,0,0,1-5.23-.52,10.2,10.2,0,0,1-4.36-2.75A8.62,8.62,0,0,1,24,87.79a9.93,9.93,0,0,1,.44-5.1,9.6,9.6,0,0,1,2.74-4.22,8.47,8.47,0,0,1,4.29-2,10.33,10.33,0,0,1,5.13.5A10.92,10.92,0,0,1,41,79.72,8.44,8.44,0,0,1,43.27,84a9.5,9.5,0,0,1-.41,5,9.84,9.84,0,0,1-2.77,4.3A8.48,8.48,0,0,1,35.71,95.34Zm3.7-14.14A9.41,9.41,0,0,0,35.75,79a8.37,8.37,0,0,0-4-.42,6.62,6.62,0,0,0-3.33,1.52,7.22,7.22,0,0,0-2.1,3.23A7.55,7.55,0,0,0,26,87.26a6.6,6.6,0,0,0,1.68,3.3,8.38,8.38,0,0,0,3.45,2.14,9.16,9.16,0,0,0,4.24.48,6.6,6.6,0,0,0,3.5-1.53A7.29,7.29,0,0,0,41,88.35a6.91,6.91,0,0,0,.26-3.85A6.67,6.67,0,0,0,39.41,81.2Z"/><path d="M37.4,69.77,39.31,71a5.25,5.25,0,0,1-.69-2.57,4.85,4.85,0,0,1,.78-2.59,4.24,4.24,0,0,1,2.94-2.2,5.9,5.9,0,0,1,3.95,1.09l6.45,4-1.08,1.76-6.39-4a4.08,4.08,0,0,0-2.63-.72,2.63,2.63,0,0,0-2,1.36,3.48,3.48,0,0,0-.54,2.11,4.21,4.21,0,0,0,.78,2.14,6.29,6.29,0,0,0,1.94,1.77L48,76.32l-1.08,1.76L36.31,71.52Z"/><path d="M41.24,52.91,56,64.82l-1.3,1.6L39.94,54.51Z"/><path d="M60.48,64.09a3.46,3.46,0,0,0,1.1-1.87,5.9,5.9,0,0,0-.32-2.52L48.33,54.28,50,52.68l10.27,4.44-4.53-10,1.58-1.55L63,58.72a5.9,5.9,0,0,1,.48,3.72,7.27,7.27,0,0,1-2.11,3.27l-.81.79-1.24-1.27Z"/><path d="M64.52,36a1.5,1.5,0,0,1-.18-1.17,1.56,1.56,0,0,1,.72-1,1.53,1.53,0,0,1,2.13.5,1.56,1.56,0,0,1-1.7,2.33A1.52,1.52,0,0,1,64.52,36ZM68.6,37.7l6.51,10.65-1.76,1.07L66.84,38.77Z"/><path d="M74.41,34.37l1,2.05a5.17,5.17,0,0,1,.83-2.53,4.82,4.82,0,0,1,2.08-1.73,4.22,4.22,0,0,1,3.66-.22A5.94,5.94,0,0,1,84.63,35l3.2,6.88L86,42.77,82.79,36A4.06,4.06,0,0,0,81,33.91a2.6,2.6,0,0,0-2.38.05A3.49,3.49,0,0,0,77,35.43a4.23,4.23,0,0,0-.52,2.21,6.66,6.66,0,0,0,.64,2.55l2.56,5.51-1.87.86L72.53,35.24Z"/><path d="M97.55,19.9l13.19,14.46-2-15.88,2.08-.27,2.36,18.58-2.69.34L97.19,22.53l2,16-2.09.27L94.77,20.25Z"/><path d="M116.89,34.2a7.83,7.83,0,0,1,.65-6.82A5.78,5.78,0,0,1,120,25.26a6.27,6.27,0,0,1,3.3-.53,6.21,6.21,0,0,1,3.13,1.14,5.81,5.81,0,0,1,2,2.54,7.14,7.14,0,0,1,.46,3.48,7.24,7.24,0,0,1-1.11,3.34,5.85,5.85,0,0,1-2.43,2.15,6.27,6.27,0,0,1-3.3.54,6.18,6.18,0,0,1-3.13-1.15A5.9,5.9,0,0,1,116.89,34.2Zm9.12-.05a6.18,6.18,0,0,0,.48-5,4.17,4.17,0,0,0-1.31-1.85,3.81,3.81,0,0,0-2.08-.81,3.77,3.77,0,0,0-2.19.41,4.06,4.06,0,0,0-1.62,1.57,6.2,6.2,0,0,0-.47,5,4.17,4.17,0,0,0,1.29,1.86,4,4,0,0,0,4.27.4A4.12,4.12,0,0,0,126,34.15Z"/><path d="M135.43,27.13l-.58,2.33c1.22-1.45,3-1.87,5.48-1.26L139.88,30a6.14,6.14,0,0,0-3.8.05,3.07,3.07,0,0,0-1.94,2.23l-1.71,6.92-1.87-.46,3-12.11Z"/><path d="M145.48,29.8l-1.31,10.27,7.34-7.47,1.82.85-1,10.44,7-7.62,2,.93-9.14,9.51-1.91-.88.94-10.29L144,42.87,142.07,42l1.38-13.12Z"/><path d="M159,47.6a7.57,7.57,0,0,1,1.49-3.2,7.47,7.47,0,0,1,2.68-2.25,5.69,5.69,0,0,1,3.12-.57,6,6,0,0,1,3,1.27,5.38,5.38,0,0,1,1.76,2.26,5.24,5.24,0,0,1,.27,3,7.31,7.31,0,0,1-1.5,3.21l-.56.73-7.52-5.76a5,5,0,0,0-1,3.14A3.51,3.51,0,0,0,162.33,52a3.69,3.69,0,0,0,2.14.83,2.72,2.72,0,0,0,1.82-.52l1.64,1.26a4.19,4.19,0,0,1-1.92,1,5.19,5.19,0,0,1-2.35,0,6.14,6.14,0,0,1-2.36-1.14,5.92,5.92,0,0,1-2-2.61A5.65,5.65,0,0,1,159,47.6Zm10.51-1.05a3.31,3.31,0,0,0-1.32-2.34,3.45,3.45,0,0,0-2.71-.78,5,5,0,0,0-2.68,1.5l5.86,4.48A4.24,4.24,0,0,0,169.53,46.55Z"/><path d="M166.78,58.69l1.39,1.53a2.3,2.3,0,0,0-.54,2.07A5.08,5.08,0,0,0,169,64.66,3.51,3.51,0,0,0,171.56,66a4.44,4.44,0,0,0,3-1.41l.95-.85a4.39,4.39,0,0,1-4.33-1.53,5.69,5.69,0,0,1-1.44-2.79,5.36,5.36,0,0,1,.36-3,7.83,7.83,0,0,1,2.06-2.8,8.16,8.16,0,0,1,3-1.8,5.27,5.27,0,0,1,3-.1,5.34,5.34,0,0,1,2.62,1.66,4.44,4.44,0,0,1,1.06,4.57l1.41-1.27,1.38,1.53-8.74,7.9a5.26,5.26,0,0,1-8.23-.33,7.2,7.2,0,0,1-2-3.75A3.93,3.93,0,0,1,166.78,58.69Zm12,2.22a6.08,6.08,0,0,0,1.54-2,3.93,3.93,0,0,0,.35-2.18,3.51,3.51,0,0,0-.91-1.92,3.6,3.6,0,0,0-1.82-1.1,4,4,0,0,0-2.2.12,6,6,0,0,0-2.2,1.33,5.91,5.91,0,0,0-1.52,2,3.91,3.91,0,0,0-.33,2.15,3.54,3.54,0,0,0,.93,1.92,3.49,3.49,0,0,0,2.87,1.23A5.3,5.3,0,0,0,178.75,60.91Z"/><path d="M188.53,63.8l-10.25,7.11-1.18-1.7,10.25-7.11ZM190,59.63a1.45,1.45,0,0,1,1.16-.25,1.55,1.55,0,0,1,1,.65,1.52,1.52,0,0,1,.26,1.16,1.48,1.48,0,0,1-.63,1,1.5,1.5,0,0,1-1.18.25,1.57,1.57,0,0,1-1.25-1.81A1.49,1.49,0,0,1,190,59.63Z"/><path d="M181.6,73.07A3.7,3.7,0,0,1,183,71.8a3.1,3.1,0,0,1,3,0,8.38,8.38,0,0,1,2.95,3l1.82,2.76.75-.39c1.62-.81,1.93-2.15,1-4a3.51,3.51,0,0,0-1.76-1.77,2.56,2.56,0,0,0-2.2.21l-.88-1.68a4.23,4.23,0,0,1,3.6-.36,6.69,6.69,0,0,1,3.55,6.73,4.2,4.2,0,0,1-2.33,2.7l-4.91,2.57a2,2,0,0,0-.83.64.79.79,0,0,0,.07.76l.16.24-1.29.65a4,4,0,0,1-.73-1,1.64,1.64,0,0,1-.08-1.56,3.38,3.38,0,0,1,1.44-1.34,4.1,4.1,0,0,1-2.64-.53,5.32,5.32,0,0,1-2-2.22,4.62,4.62,0,0,1-.59-2.22A3.5,3.5,0,0,1,181.6,73.07ZM187,78.84a5.09,5.09,0,0,0,2.29-.56l-1.47-2.19a8.1,8.1,0,0,0-2.05-2.29,1.64,1.64,0,0,0-1.76-.18,2,2,0,0,0-1,1.19,2.62,2.62,0,0,0,.36,2,3.65,3.65,0,0,0,1.47,1.52A4.2,4.2,0,0,0,187,78.84Z"/><path d="M198.74,83.8l-2.15.68a5.08,5.08,0,0,1,2.4,1.15,4.81,4.81,0,0,1,1.45,2.29,4.22,4.22,0,0,1-.26,3.65,5.9,5.9,0,0,1-3.4,2.28l-7.24,2.28-.61-2,7.16-2.26a4,4,0,0,0,2.26-1.51,2.6,2.6,0,0,0,.26-2.37,3.5,3.5,0,0,0-1.24-1.8,4.15,4.15,0,0,0-2.13-.8,6.34,6.34,0,0,0-2.61.3l-5.79,1.83-.62-2,11.9-3.75Z"/></g></g></svg>